PathFileType	4	(X/Y/Z)	/Users/itak/Documents/Research/Walk-IL/dataset/trc/00321_00011.trc
DataRate	CameraRate	NumFrames	NumMarkers	Units	OrigDataRate	OrigDataStartFrame	OrigNumFrames
100.000000	100.000000	4	55	mm	100.000000	183	488
Frame#	Time	LPSI			L3			STRN			T10			C7			CLAV			RBAK			LBAK			LSHO			LUPA			LAEL			LAOL			LWTS			LWPS			LFRA			LIFD			LHPS			RSHO			RUPA			RAEL			RAOL			RWTS			RWPS			RFRA			RIFD			RHTS			RHPS			RBHD			LFHD			RFHD			LBHD			LHIP			RHIP			RASI			LASI			LKNE			LTHI			LANK			LTIP			LTOE			LMT1			LMT5			LHEE			RKNE			RTHI			RANK			RTIP			RTOE			RMT1			RMT5			RHEE			RPSI			LHTS			*53			*54			
		X1	Y1	Z1	X2	Y2	Z2	X3	Y3	Z3	X4	Y4	Z4	X5	Y5	Z5	X6	Y6	Z6	X7	Y7	Z7	X8	Y8	Z8	X9	Y9	Z9	X10	Y10	Z10	X11	Y11	Z11	X12	Y12	Z12	X13	Y13	Z13	X14	Y14	Z14	X15	Y15	Z15	X16	Y16	Z16	X17	Y17	Z17	X18	Y18	Z18	X19	Y19	Z19	X20	Y20	Z20	X21	Y21	Z21	X22	Y22	Z22	X23	Y23	Z23	X24	Y24	Z24	X25	Y25	Z25	X26	Y26	Z26	X27	Y27	Z27	X28	Y28	Z28	X29	Y29	Z29	X30	Y30	Z30	X31	Y31	Z31	X32	Y32	Z32	X33	Y33	Z33	X34	Y34	Z34	X35	Y35	Z35	X36	Y36	Z36	X37	Y37	Z37	X38	Y38	Z38	X39	Y39	Z39	X40	Y40	Z40	X41	Y41	Z41	X42	Y42	Z42	X43	Y43	Z43	X44	Y44	Z44	X45	Y45	Z45	X46	Y46	Z46	X47	Y47	Z47	X48	Y48	Z48	X49	Y49	Z49	X50	Y50	Z50	X51	Y51	Z51	X52	Y52	Z52	X53	Y53	Z53	X54	Y54	Z54	X55	Y55	Z55	

184	1.83	-533.5855102539062	939.2665405273438	-47.49774932861328	-537.6865234375	999.057861328125	8.59502124786377	-300.3045043945312	1174.890258789062	-5.735758781433105	-547.05859375	1117.376586914062	-12.01732540130615	-495.7069091796875	1362.970947265625	-28.70044708251953	-340.7599487304688	1300.950805664062	-10.69795799255371	-551.27685546875	1226.41650390625	35.12744522094727	-498.733154296875	1325.466064453125	-132.380859375	-407.7221374511719	1341.787963867188	-177.6211547851562	-404.3054504394531	1225.558837890625	-251.3307037353516	-329.9397583007812	1035.677368164062	-283.3570251464844	-391.1233520507812	997.9365234375	-238.5559234619141	-139.1403503417969	875.61328125	-217.1313781738281	-157.8135986328125	845.4574584960938	-276.8673400878906	-269.9662170410156	950.1441040039062	-287.0548706054688	-37.86627197265625	751.7489013671875	-209.0549774169922	-119.0129318237305	788.2437133789062	-268.6126708984375	-449.5218811035156	1346.554931640625	139.3860931396484	-473.822021484375	1283.884765625	199.7501831054688	-534.326416015625	1022.903564453125	228.0406188964844	-546.1165771484375	1020.528686523438	134.0608825683594	-499.1736450195312	770.6702270507812	226.1405639648438	-553.6392211914062	780.7205810546875	279.7847290039062	-534.1712646484375	956.8056640625	247.0840301513672	-565.3096313476562	609.6455078125	247.6493072509766	-521.7470092773438	672.5513305664062	250.0812225341797	-575.47998046875	698.4682006835938	283.6705932617188	-458.4252319335938	1556.807250976562	61.80288314819336	-288.4101257324219	1587.251708984375	-55.60712432861328	-299.1626586914062	1584.808227539062	44.88643646240234	-470.05078125	1553.259521484375	-83.14520263671875	-462.3816833496094	879.8484497070312	-161.3468475341797	-428.1626281738281	888.0452270507812	181.4165344238281	-333.3509826660156	919.6177368164062	121.5195159912109	-333.4309692382812	901.1326293945312	-118.156982421875	-503.5202331542969	435.4248657226562	-133.2283020019531	-476.4359130859375	570.31884765625	-147.0438690185547	-798.7567749023438	106.0571594238281	-94.571533203125	-651.747802734375	260.3260192871094	-125.3692092895508	-621.29736328125	42.83382415771484	-32.50642395019531	-680.1788940429688	46.54825973510742	9.423348426818848	-691.130126953125	46.73525619506836	-106.12255859375	-826.893798828125	129.9858245849609	-27.78620147705078	-223.3634338378906	460.5859985351562	126.5113983154297	-293.2786560058594	707.9384155273438	173.8980712890625	-192.2745666503906	46.13745880126953	87.07543182373047	-185.7108917236328	344.5121154785156	113.0792617797852	-2.353848457336426	65.60832214355469	28.70331954956055	-57.67311096191406	49.31603622436523	-11.78937816619873	-89.97438049316406	40.01911163330078	99.53114318847656	-242.7164459228516	43.77801132202148	39.2777214050293	-524.7015380859375	933.7306518554688	81.86511993408203	-81.47412872314453	822.0038452148438	-229.4470977783203	nan	nan	nan	nan	nan	nan	
185	1.84	-520.2947998046875	939.9527587890625	-47.06671905517578	-524.4385986328125	999.5263061523438	9.185118675231934	-288.2068481445312	1176.654663085938	-4.573126316070557	-535.0094604492188	1117.572143554688	-11.41883563995361	-484.8607482910156	1363.686157226562	-27.4587516784668	-329.3826293945312	1302.448974609375	-9.631288528442383	-539.2661743164062	1226.845336914062	36.46637725830078	-487.7837524414062	1326.305297851562	-131.0309600830078	-396.9490966796875	1342.828002929688	-176.4189147949219	-393.9507751464844	1226.50244140625	-250.0131225585938	-322.5442504882812	1035.483154296875	-281.5287170410156	-384.4273071289062	999.0497436523438	-236.4144287109375	-134.8062896728516	871.8308715820312	-215.2935485839844	-154.1818084716797	842.001708984375	-274.9588012695312	-264.0960083007812	948.8181762695312	-285.16064453125	-35.79221343994141	746.2786254882812	-207.3181610107422	-116.3546676635742	784.0556640625	-266.707763671875	-438.1593933105469	1347.62548828125	140.5456848144531	-461.7507629394531	1284.686279296875	201.0198822021484	-519.5237426757812	1022.9755859375	229.0025177001953	-531.75244140625	1020.785034179688	135.0831451416016	-483.0669860839844	770.7401733398438	225.8825225830078	-536.793212890625	780.7470092773438	280.4320678710938	-518.7744750976562	956.9019165039062	247.8511657714844	-548.9688720703125	609.6771240234375	247.5949401855469	-505.5428161621094	672.31494140625	249.7943267822266	-558.5277709960938	698.4092407226562	284.1852416992188	-447.6557922363281	1558.034301757812	62.68370819091797	-277.8213195800781	1588.446411132812	-55.04049301147461	-288.4541931152344	1586.167114257812	45.46947479248047	-459.4772338867188	1554.243774414062	-82.24106597900391	-448.6217346191406	880.2246704101562	-160.5824279785156	-415.2802734375	889.9478759765625	182.4524383544922	-320.4430236816406	921.3973999023438	122.6024169921875	-320.1700439453125	901.9304809570312	-116.835205078125	-485.8119812011719	435.1805725097656	-133.1930999755859	-459.8594970703125	569.8643798828125	-146.7267761230469	-791.15185546875	114.8305358886719	-96.07038116455078	-639.0718994140625	264.3310852050781	-126.4992752075195	-621.6403198242188	42.46378707885742	-32.69173812866211	-677.5213623046875	48.80356979370117	8.823319435119629	-688.3796997070312	47.81398773193359	-106.8723373413086	-817.5307006835938	140.9151153564453	-29.54097747802734	-211.5917510986328	461.6782531738281	127.1106414794922	-281.1940612792969	708.80908203125	174.8960418701172	-190.9500427246094	46.66891479492188	87.07331848144531	-175.8943786621094	344.6582946777344	112.9990921020508	-0.1468782871961594	60.68903350830078	27.67642593383789	-56.38612747192383	46.03703689575195	-12.49465751647949	-88.84734344482422	38.31035995483398	98.81929016113281	-241.5816192626953	45.19574356079102	39.34589385986328	-511.583251953125	935.297119140625	82.39852142333984	-78.20292663574219	816.98779296875	-227.5455627441406	nan	nan	nan	nan	nan	nan	
186	1.85	-507.1463317871094	940.836181640625	-46.52164077758789	-511.0589294433594	1000.273254394531	9.980338096618652	-276.1698303222656	1178.682861328125	-3.488982200622559	-522.9387817382812	1117.969482421875	-10.68522262573242	-474.111328125	1364.597290039062	-26.20380592346191	-318.0821838378906	1304.207397460938	-8.640667915344238	-527.2716674804688	1227.495971679688	37.91292953491211	-476.9884948730469	1327.328002929688	-129.6453094482422	-386.3692321777344	1344.119018554688	-175.2235412597656	-383.7867736816406	1227.739624023438	-248.7300567626953	-315.3173217773438	1035.602661132812	-279.5350036621094	-377.7339477539062	1000.504333496094	-234.0495147705078	-130.9459686279297	867.8963012695312	-213.5123596191406	-151.1963500976562	838.443359375	-273.0587158203125	-258.6017150878906	947.6775512695312	-283.173583984375	-34.77257537841797	740.2483520507812	-205.7136688232422	-114.584602355957	779.623779296875	-264.8518981933594	-426.7934265136719	1349.016357421875	141.6616058349609	-449.6467895507812	1285.882202148438	202.3009033203125	-504.582763671875	1023.463989257812	230.0169982910156	-517.2783203125	1021.419616699219	136.1725921630859	-466.259521484375	771.2816162109375	225.7020568847656	-519.3399047851562	781.0518188476562	281.0960998535156	-503.1373596191406	957.364501953125	248.6622619628906	-531.415283203125	609.9100341796875	247.4233551025391	-488.4830017089844	672.2789306640625	249.4556732177734	-540.7174682617188	698.5770874023438	284.6351623535156	-436.8999328613281	1559.462036132812	63.5353889465332	-267.2638854980469	1589.79443359375	-54.53023529052734	-277.750732421875	1587.668090820312	45.98981094360352	-448.97216796875	1555.45556640625	-81.36814117431641	-435.0003967285156	880.9569091796875	-159.7807006835938	-402.4261779785156	891.862060546875	183.5050201416016	-307.5921936035156	923.2064819335938	123.7169570922852	-307.0274658203125	903.1088256835938	-115.4864730834961	-466.88232421875	434.86181640625	-133.6063690185547	-442.4707946777344	569.493896484375	-146.6639404296875	-782.0496826171875	124.2064819335938	-97.55390930175781	-625.0111694335938	268.5211486816406	-127.767936706543	-621.6975708007812	41.85018920898438	-32.91741180419922	-674.1624145507812	51.4282112121582	8.205896377563477	-685.1354370117188	49.2003059387207	-107.598747253418	-806.3858032226562	152.3657684326172	-31.25998497009277	-200.406005859375	462.3174133300781	127.8324203491211	-269.4529418945312	709.4908447265625	175.9142761230469	-189.8197021484375	47.16770935058594	87.07762908935547	-166.9439849853516	344.5275268554688	113.0160980224609	1.651061415672302	56.53478622436523	26.99826812744141	-55.34197998046875	43.4923210144043	-12.94698333740234	-87.97686767578125	37.06735610961914	98.44292449951172	-240.6336364746094	46.37509536743164	39.38674545288086	-498.4985961914062	936.9812622070312	83.02204132080078	-75.71646881103516	811.445556640625	-225.6412658691406	nan	nan	nan	nan	nan	nan	
187	1.86	-494.2286682128906	941.8424072265625	-45.87128067016602	-497.631591796875	1001.209777832031	10.9755277633667	-264.2191162109375	1180.89794921875	-2.520668745040894	-510.8532104492188	1118.530395507812	-9.765541076660156	-463.4507141113281	1365.654907226562	-24.92490196228027	-306.8731384277344	1306.15234375	-7.744364738464355	-515.3257446289062	1228.320434570312	39.47503280639648	-466.3811950683594	1328.476318359375	-128.2162780761719	-376.0108947753906	1345.593017578125	-174.0475616455078	-373.8695983886719	1229.191284179688	-247.47998046875	-308.2449035644531	1035.986083984375	-277.3832092285156	-371.1122436523438	1002.224426269531	-231.5247497558594	-127.5408782958984	863.8148193359375	-211.7864074707031	-148.8012390136719	834.8056640625	-271.1779174804688	-253.4515228271484	946.702392578125	-281.1074523925781	-34.8060188293457	733.6979370117188	-204.2066802978516	-113.6487121582031	774.9921264648438	-263.0436401367188	-415.4084167480469	1350.661865234375	142.7388458251953	-437.5091552734375	1287.404052734375	203.5926818847656	-489.5489807128906	1024.308227539062	231.113525390625	-502.7633972167969	1022.369873046875	137.3496551513672	-448.7663879394531	772.279541015625	225.6467895507812	-501.3241577148438	781.5859375	281.7820129394531	-487.2945861816406	958.1331176757812	249.5450439453125	-512.6409912109375	610.317138671875	247.1850433349609	-470.5937805175781	672.4094848632812	249.1006164550781	-522.0880737304688	698.9205932617188	285.0423583984375	-426.1688537597656	1561.037109375	64.35234832763672	-256.7601318359375	1591.25	-54.09154891967773	-267.0632934570312	1589.267944335938	46.43705368041992	-438.5489807128906	1556.841552734375	-80.53700256347656	-421.6159057617188	881.9510498046875	-158.936767578125	-389.690673828125	893.72314453125	184.578125	-294.8861083984375	924.9925537109375	124.8761749267578	-294.0708923339844	904.5858764648438	-114.1222915649414	-446.8726196289062	434.4591979980469	-134.4728851318359	-424.3681335449219	569.1597900390625	-146.8480529785156	-771.3525390625	134.0691833496094	-99.08245086669922	-609.5861206054688	272.7984008789062	-129.1652526855469	-621.152587890625	40.94371795654297	-33.22219467163086	-669.9742431640625	54.49698638916016	7.546779632568359	-681.25830078125	51.02851104736328	-108.304557800293	-793.4684448242188	164.13427734375	-32.99355316162109	-189.9455413818359	462.4909057617188	128.6366882324219	-258.021484375	710.0286865234375	176.9129791259766	-188.8750762939453	47.63322448730469	87.07382202148438	-158.9069976806641	344.0852355957031	113.1048049926758	3.051900625228882	53.09133911132812	26.50305938720703	-54.53631973266602	41.54966735839844	-13.28421592712402	-87.30983734130859	36.23871612548828	98.25508117675781	-239.8762664794922	47.30902862548828	39.38201904296875	-485.5404052734375	938.7020874023438	83.72676086425781	-73.97762298583984	805.4364624023438	-223.7268981933594	nan	nan	nan	nan	nan	nan	
